<svg width="20" height="20" fill="none" xmlns="http://www.w3.org/2000/svg"><path fill-rule="evenodd" clip-rule="evenodd" d="m12.04 5 1.344-1.345 2.96 2.959L15 7.96 12.039 5Zm-2.122-.707 2.317-2.317a1.625 1.625 0 0 1 2.298 0l3.491 3.489a1.625 1.625 0 0 1 0 2.297l-2.282 2.283a1.01 1.01 0 0 1-.072.072l-7.28 7.282a1.625 1.625 0 0 1-1.148.476H3.75a1.625 1.625 0 0 1-1.625-1.625v-3.491c0-.431.171-.844.475-1.149l4.818-4.817 2.5-2.5Zm3.667 5.081-6.5 6.501h-2.96v-2.96l4.707-4.708 1.793-1.793 2.96 2.96Z" fill="#BBB"/></svg>