<svg width="48" height="48" fill="none" xmlns="http://www.w3.org/2000/svg"><path d="M42.2 19.954a1.326 1.326 0 0 0-1.309 1.308v10.465L33.6 23.39a4.953 4.953 0 0 0-7.221 0l-5.006 5.721-1.64-1.988a4.815 4.815 0 0 0-7.395 0l-3.715 4.482v-17.32a5.686 5.686 0 0 1 5.668-5.669h13.954a1.308 1.308 0 0 0 0-2.616H14.291a8.285 8.285 0 0 0-8.285 8.285v20.931a.157.157 0 0 0 0 .087 8.285 8.285 0 0 0 8.285 8.198h20.931a8.285 8.285 0 0 0 8.268-8.163V21.262a1.326 1.326 0 0 0-1.29-1.308Zm-6.978 20.93h-20.93a5.669 5.669 0 0 1-5.635-5.232l5.634-6.855a2.25 2.25 0 0 1 3.35 0l2.633 3.175a1.29 1.29 0 0 0 .994.47 1.5 1.5 0 0 0 .994-.453l6-6.872a2.284 2.284 0 0 1 3.315 0l9.192 10.465a5.65 5.65 0 0 1-5.547 5.303Z" fill="#AD7955"/><path fill-rule="evenodd" clip-rule="evenodd" d="M42.21 19.554a1.725 1.725 0 0 1 1.68 1.703v14.087a8.685 8.685 0 0 1-8.667 8.557H14.291a8.685 8.685 0 0 1-8.684-8.555.557.557 0 0 1 0-.169V14.285A8.685 8.685 0 0 1 14.29 5.6h13.954a1.708 1.708 0 1 1 0 3.416H14.292a5.286 5.286 0 0 0-5.27 5.27v16.21l3.008-3.628a5.22 5.22 0 0 1 4.006-1.877 5.214 5.214 0 0 1 4.005 1.876l.001.001 1.34 1.626 4.705-5.378a5.355 5.355 0 0 1 7.805 0l.01.01 6.59 7.537v-9.406a1.725 1.725 0 0 1 1.702-1.703h.016Zm-1.32 12.174L33.6 23.39a4.953 4.953 0 0 0-7.222 0l-5.006 5.721-1.64-1.988a4.815 4.815 0 0 0-7.395 0l-3.715 4.482v-17.32a5.686 5.686 0 0 1 5.668-5.669h13.954a1.308 1.308 0 1 0 0-2.616H14.291a8.285 8.285 0 0 0-8.285 8.285v20.931a.157.157 0 0 0 0 .087 8.285 8.285 0 0 0 8.285 8.198h20.931a8.285 8.285 0 0 0 8.268-8.163V21.262a1.326 1.326 0 0 0-1.29-1.308 1.326 1.326 0 0 0-1.309 1.308v10.466Zm-19.623.715a1.29 1.29 0 0 1-.994-.471l-2.634-3.175a2.25 2.25 0 0 0-3.349 0l-5.633 6.855a5.669 5.669 0 0 0 5.633 5.233h20.931a5.651 5.651 0 0 0 5.547-5.303l-9.192-10.465a2.284 2.284 0 0 0-3.314 0l-6 6.872a1.5 1.5 0 0 1-.995.454Zm7.29-7.056-6.008 6.881a1.9 1.9 0 0 1-1.26.574l-.023.001a1.69 1.69 0 0 1-1.301-.616l-2.628-3.168a1.85 1.85 0 0 0-2.743 0l-5.524 6.72a5.269 5.269 0 0 0 5.222 4.706h20.926a5.252 5.252 0 0 0 5.138-4.765l-9.075-10.333a1.883 1.883 0 0 0-2.724 0Z" fill="#AD7955"/><path d="M11.24 16.03a4.797 4.797 0 1 0 9.594 0 4.797 4.797 0 0 0-9.595 0Zm6.976 0a2.181 2.181 0 1 1-4.362 0 2.181 2.181 0 0 1 4.362 0Zm13.518-2.18h3.925v3.924a1.308 1.308 0 1 0 2.616 0v-3.925H42.2a1.308 1.308 0 1 0 0-2.616h-3.925V7.308a1.308 1.308 0 0 0-2.616 0v3.925h-3.925a1.308 1.308 0 1 0 0 2.616Z" fill="#AD7955"/><path fill-rule="evenodd" clip-rule="evenodd" d="M11.715 18.917a5.196 5.196 0 1 1 8.64-5.774 5.196 5.196 0 0 1-8.64 5.774Zm5.801-1.898a1.78 1.78 0 1 0-2.96-1.979 1.78 1.78 0 0 0 2.96 1.979Zm17.743-2.77h-3.525a1.708 1.708 0 0 1 0-3.416h3.525V7.308a1.708 1.708 0 0 1 3.416 0v3.525H42.2a1.709 1.709 0 0 1 0 3.416h-3.525v3.525a1.709 1.709 0 0 1-3.416 0v-3.525Zm-23.211 4.445a4.797 4.797 0 1 1 7.978-5.33 4.797 4.797 0 0 1-7.978 5.33Zm5.8-1.453a2.181 2.181 0 1 0-3.626-2.423 2.181 2.181 0 0 0 3.627 2.423Zm13.886-3.392a1.309 1.309 0 0 1 0-2.616h3.925V7.308a1.308 1.308 0 1 1 2.616 0v3.925H42.2a1.308 1.308 0 1 1 0 2.616h-3.925v3.925a1.308 1.308 0 0 1-2.616 0v-3.925h-3.925Z" fill="#AD7955"/></svg>