<svg width="20" height="20" fill="none" xmlns="http://www.w3.org/2000/svg"><path fill-rule="evenodd" clip-rule="evenodd" d="M3.601 2.601a1.625 1.625 0 0 1 1.149-.476h4.375a1 1 0 0 1 0 2h-4v11.75h4a1 1 0 1 1 0 2H4.75a1.625 1.625 0 0 1-1.625-1.625V3.75c0-.431.171-.844.476-1.149ZM8.125 10a1 1 0 0 1 1-1h6.336l-1.418-1.418a1 1 0 0 1 1.414-1.414l3.124 3.124a.996.996 0 0 1 .294.705v.006c0 .272-.11.518-.286.697l-.008.008-3.124 3.124a1 1 0 0 1-1.414-1.414L15.46 11H9.125a1 1 0 0 1-1-1Z" fill="#BBB"/></svg>