<svg width="24" height="24" fill="none" xmlns="http://www.w3.org/2000/svg"><path d="M14.05 20.182v-.05h-3.737v.05a1.868 1.868 0 0 0 3.737 0Zm6.29-2.36a.959.959 0 0 0-.208-1.046l-1.537-1.537v-5.057a6.414 6.414 0 0 0-5.454-6.334v-.939a.959.959 0 1 0-1.918 0v.939a6.414 6.414 0 0 0-5.455 6.334v5.057l-1.537 1.537a.959.959 0 0 0 .678 1.638h14.545a.959.959 0 0 0 .886-.592Zm-3.2-1.326H7.223l.181-.182a.959.959 0 0 0 .281-.678v-5.454a4.495 4.495 0 0 1 8.991 0v5.454c0 .255.101.499.281.678l.181.181Z" fill="#fff" stroke="#fff" stroke-width=".1"/></svg>