<svg width="18" height="18" fill="none" xmlns="http://www.w3.org/2000/svg"><g clip-path="url(#a)"><path d="M9.847 14H8.528v-1.32h1.319V14Zm0-3.852a2.747 2.747 0 0 0 2.107-2.772c-.055-1.424-1.223-2.582-2.66-2.636a2.765 2.765 0 0 0-2.04.774 2.7 2.7 0 0 0-.835 1.96h1.318c0-.384.153-.743.431-1.01a1.46 1.46 0 0 1 1.077-.407c.752.029 1.363.63 1.392 1.37a1.43 1.43 0 0 1-1.131 1.447 1.232 1.232 0 0 0-.978 1.21v1.279h1.319v-1.215Zm5.307 5.006a8.382 8.382 0 0 0 2.471-5.966 8.382 8.382 0 0 0-2.471-5.967A8.382 8.382 0 0 0 9.188.75 8.382 8.382 0 0 0 3.22 3.221 8.382 8.382 0 0 0 .75 9.187c0 2.254.878 4.373 2.471 5.967a8.382 8.382 0 0 0 5.966 2.471 8.382 8.382 0 0 0 5.967-2.471Zm1.153-5.966c0 3.925-3.194 7.119-7.12 7.119-3.925 0-7.119-3.194-7.119-7.12 0-3.925 3.194-7.119 7.12-7.119 3.925 0 7.119 3.194 7.119 7.12Z" fill="#999"/></g><defs><clipPath id="a"><path fill="#fff" d="M0 0h18v18H0z"/></clipPath></defs></svg>