<svg width="24" height="24" fill="none" xmlns="http://www.w3.org/2000/svg"><g clip-path="url(#a)"><path d="M18.734 5.928c-.014-.1-.104-.156-.178-.162l-1.644-.12-1.21-1.17c-.12-.117-.354-.082-.444-.056l-.61.184c-.365-1.021-1.008-1.96-2.139-1.96-.03 0-.063.002-.095.004-.322-.415-.72-.595-1.064-.595-2.634 0-3.893 3.208-4.288 4.838L5.22 7.45c-.572.174-.59.192-.665.716-.056.397-1.551 11.66-1.551 11.66l11.65 2.126 6.311-1.33s-2.216-14.593-2.23-14.693Zm-4.73-1.13-.986.297v-.207c0-.634-.09-1.145-.235-1.55.583.07.97.717 1.22 1.46ZM12.06 3.463c.162.396.268.963.268 1.73l-.001.11-2.036.614c.392-1.473 1.127-2.185 1.77-2.454Zm-.783-.721c.114 0 .229.037.338.11-.844.388-1.749 1.362-2.131 3.309l-1.61.485c.448-1.484 1.511-3.904 3.404-3.904Z" fill="#AD7955"/><path d="m18.556 5.766-1.645-.12-1.21-1.17a.303.303 0 0 0-.168-.076l-.88 17.55 6.31-1.33S18.749 6.027 18.735 5.927c-.014-.1-.104-.155-.178-.161Z" fill="#8F5334"/><path d="m12.51 9.163-.779 2.255s-.682-.354-1.518-.354c-1.225 0-1.287.75-1.287.938 0 1.03 2.756 1.425 2.756 3.837 0 1.898-1.236 3.12-2.902 3.12-2 0-3.022-1.212-3.022-1.212l.535-1.723s1.051.88 1.938.88c.58 0 .816-.445.816-.77 0-1.344-2.262-1.404-2.262-3.611 0-1.859 1.37-3.657 4.133-3.657 1.065 0 1.591.297 1.591.297Z" fill="#fff"/></g><defs><clipPath id="a"><path fill="#fff" transform="translate(3 2)" d="M0 0h18v20H0z"/></clipPath></defs></svg>