<svg width="124" height="32" fill="none" xmlns="http://www.w3.org/2000/svg"><path d="M16 23.857s-9.286-5-9.286-10.893a4.821 4.821 0 0 1 4.822-4.82C13.553 8.143 15.28 9.241 16 11c.72-1.758 2.447-2.857 4.464-2.857a4.821 4.821 0 0 1 4.821 4.821c0 5.893-9.285 10.893-9.285 10.893Z" stroke="#AD7955" stroke-width="2.5" stroke-linecap="round" stroke-linejoin="round"/><path d="M40.48 23.3a4.39 4.39 0 0 1-1.4-.22c-.44-.133-.84-.34-1.2-.62a3.747 3.747 0 0 1-.92-1.06 5.223 5.223 0 0 1-.54-1.52h2.42c.08.467.267.813.56 1.04.307.213.667.32 1.08.32.387 0 .713-.093.98-.28.28-.2.42-.48.42-.84 0-.413-.153-.707-.46-.88-.293-.187-.74-.347-1.34-.48a10.2 10.2 0 0 1-1.28-.4 4.204 4.204 0 0 1-1.1-.62 3.21 3.21 0 0 1-.78-.96c-.187-.373-.28-.82-.28-1.34 0-.44.08-.84.24-1.2.173-.373.413-.693.72-.96.307-.28.673-.493 1.1-.64.427-.16.9-.24 1.42-.24.933 0 1.753.267 2.46.8.707.52 1.18 1.34 1.42 2.46h-2.38c-.107-.427-.293-.733-.56-.92a1.38 1.38 0 0 0-.88-.3c-.333 0-.62.087-.86.26-.24.16-.36.407-.36.74 0 .36.147.633.44.82.307.187.793.353 1.46.5.44.107.86.24 1.26.4.413.16.773.373 1.08.64.32.253.567.567.74.94.187.373.28.82.28 1.34 0 .533-.107 1-.32 1.4-.2.4-.473.733-.82 1a3.4 3.4 0 0 1-1.18.6c-.453.147-.927.22-1.42.22Zm5.646-10.58h2.66v1.58c.4-.587.894-1.047 1.48-1.38a3.743 3.743 0 0 1 1.94-.52c.667 0 1.3.14 1.9.42a5 5 0 0 1 1.58 1.16 5.39 5.39 0 0 1 1.08 1.72c.267.667.4 1.38.4 2.14 0 .773-.133 1.493-.4 2.16a5.637 5.637 0 0 1-1.08 1.74c-.453.48-.98.86-1.58 1.14-.6.28-1.233.42-1.9.42a3.858 3.858 0 0 1-1.94-.5 4.551 4.551 0 0 1-1.48-1.42v5.02h-2.66V12.72Zm2.68 5.12c0 .4.074.78.22 1.14a3 3 0 0 0 .6.94c.267.253.574.46.92.62.347.147.714.22 1.1.22.4 0 .774-.073 1.12-.22.36-.147.667-.347.92-.6.267-.267.474-.573.62-.92.147-.36.22-.747.22-1.16a2.846 2.846 0 0 0-.84-2.04 2.608 2.608 0 0 0-.92-.62 2.64 2.64 0 0 0-1.12-.24c-.386 0-.753.08-1.1.24a2.87 2.87 0 0 0-.92.62 2.844 2.844 0 0 0-.82 2.02ZM63.78 23.3c-.774 0-1.5-.14-2.18-.42a5.91 5.91 0 0 1-1.76-1.18 5.99 5.99 0 0 1-1.18-1.74 5.253 5.253 0 0 1-.44-2.14c0-.747.146-1.447.44-2.1A5.409 5.409 0 0 1 59.84 14a5.613 5.613 0 0 1 1.76-1.16 5.445 5.445 0 0 1 2.18-.44c.76 0 1.473.147 2.14.44.68.28 1.266.667 1.76 1.16.506.48.9 1.053 1.18 1.72a5.07 5.07 0 0 1 .44 2.1 5.26 5.26 0 0 1-.44 2.14 5.225 5.225 0 0 1-1.18 1.74 5.592 5.592 0 0 1-1.76 1.18 5.47 5.47 0 0 1-2.14.42Zm-2.86-5.46c0 .4.073.78.22 1.14.146.347.346.653.6.92.266.253.566.46.9.62.346.147.72.22 1.12.22.4 0 .766-.073 1.1-.22.346-.16.646-.367.9-.62.266-.267.473-.573.62-.92.146-.36.22-.74.22-1.14 0-.4-.074-.773-.22-1.12a2.652 2.652 0 0 0-.62-.9 2.653 2.653 0 0 0-.9-.62 2.794 2.794 0 0 0-1.1-.22c-.4 0-.774.073-1.12.22a2.938 2.938 0 0 0-.9.62 2.844 2.844 0 0 0-.82 2.02Zm12.81-5.12v1.94c.253-.667.653-1.193 1.2-1.58.56-.4 1.293-.573 2.2-.52v2.74c-1.173-.107-2.013.12-2.52.68-.493.56-.74 1.393-.74 2.5V23h-2.7V12.72h2.56Zm12.014 10.34c-1.226.187-2.24.213-3.04.08-.8-.133-1.433-.407-1.9-.82-.466-.413-.793-.947-.98-1.6-.173-.667-.26-1.427-.26-2.28V15h-1.72v-2.28h1.72v-3.2h2.62v3.2h3.42V15h-3.42v3.06c0 .467.027.893.08 1.28.067.387.22.707.46.96.24.24.594.4 1.06.48.48.067 1.134.033 1.96-.1v2.38Zm4.53-14.66v5.9c.333-.6.78-1.06 1.34-1.38a3.72 3.72 0 0 1 1.88-.48c.466 0 .92.08 1.36.24.44.16.826.42 1.16.78.333.36.6.833.8 1.42.2.573.3 1.28.3 2.12v6h-2.68v-5.74c0-.88-.16-1.513-.48-1.9-.32-.387-.78-.58-1.38-.58-.28 0-.547.047-.8.14-.254.093-.487.24-.7.44a2.265 2.265 0 0 0-.54.74 3.34 3.34 0 0 0-.26 1.06V23h-2.68V8.4h2.68ZM106.125 23v-1.38a3.32 3.32 0 0 1-1.28 1.26c-.534.28-1.134.42-1.8.42a3.79 3.79 0 0 1-1.4-.26 2.955 2.955 0 0 1-1.14-.78c-.334-.36-.6-.82-.8-1.38-.187-.573-.28-1.267-.28-2.08v-6.08h2.66v5.66c0 1.693.613 2.54 1.84 2.54.573 0 1.08-.207 1.52-.62.44-.427.666-1.067.68-1.92v-5.66h2.68V23h-2.68Zm5.334-14.6h2.64v5.88a4.48 4.48 0 0 1 1.46-1.38 3.856 3.856 0 0 1 1.94-.5c.666 0 1.3.14 1.9.42.613.28 1.146.667 1.6 1.16a5.4 5.4 0 0 1 1.08 1.72c.266.653.4 1.367.4 2.14 0 .773-.134 1.493-.4 2.16a5.712 5.712 0 0 1-1.08 1.72c-.454.493-.987.88-1.6 1.16-.6.28-1.234.42-1.9.42a3.856 3.856 0 0 1-1.94-.5 4.486 4.486 0 0 1-1.46-1.38V23h-2.64V8.4Zm2.64 9.44c0 .4.073.78.22 1.14.146.36.346.673.6.94.266.253.573.46.92.62.346.147.713.22 1.1.22.4 0 .773-.073 1.12-.22.36-.147.666-.347.92-.6.266-.267.473-.58.62-.94.146-.36.22-.747.22-1.16 0-.4-.074-.773-.22-1.12a2.888 2.888 0 0 0-.62-.92 2.614 2.614 0 0 0-.92-.62c-.347-.16-.72-.24-1.12-.24-.387 0-.754.08-1.1.24a2.86 2.86 0 0 0-.92.62 3.022 3.022 0 0 0-.6.92 2.84 2.84 0 0 0-.22 1.12Z" fill="#fff"/></svg>