<svg width="24" height="24" fill="none" xmlns="http://www.w3.org/2000/svg"><path d="M12 12a.75.75 0 0 1 .75.75v4.5a.75.75 0 1 1-1.5 0v-4.5A.75.75 0 0 1 12 12Zm-2.25 1.5a.75.75 0 0 1 .75.75v3a.75.75 0 1 1-1.5 0v-3a.75.75 0 0 1 .75-.75Zm4.5 0a.75.75 0 0 1 .75.75v3a.75.75 0 1 1-1.5 0v-3a.75.75 0 0 1 .75-.75Z" fill="#BBB"/><path fill-rule="evenodd" clip-rule="evenodd" d="M9.75 3A2.25 2.25 0 0 0 7.5 5.25V6H3.75a.75.75 0 0 0 0 1.5h.829l1.277 11.498A2.25 2.25 0 0 0 8.092 21h7.816a2.25 2.25 0 0 0 2.236-2.002L19.421 7.5h.829a.75.75 0 1 0 0-1.5H16.5v-.75A2.25 2.25 0 0 0 14.25 3h-4.5ZM15 6v-.75a.75.75 0 0 0-.75-.75h-4.5a.75.75 0 0 0-.75.75V6h6ZM7.347 18.832 6.087 7.5h11.825l-1.26 11.332a.75.75 0 0 1-.745.668H8.093a.75.75 0 0 1-.745-.668Z" fill="#BBB"/></svg>