<svg width="64" height="64" fill="none" xmlns="http://www.w3.org/2000/svg"><path d="M56.266 26.605a1.767 1.767 0 0 0-1.745 1.744v13.954l-9.72-11.116a6.606 6.606 0 0 0-9.63 0l-6.674 7.628-2.186-2.651a6.417 6.417 0 0 0-9.86 0l-4.954 5.977V19.047a7.581 7.581 0 0 1 7.558-7.559H37.66a1.744 1.744 0 0 0 0-3.488H19.055A11.047 11.047 0 0 0 8.008 19.047v27.908a.21.21 0 0 0 0 .116 11.047 11.047 0 0 0 11.047 10.93h27.908a11.047 11.047 0 0 0 11.023-10.883V28.349a1.767 1.767 0 0 0-1.72-1.744Zm-9.303 27.908H19.055a7.559 7.559 0 0 1-7.512-6.977l7.512-9.14a3 3 0 0 1 4.465 0l3.512 4.233a1.72 1.72 0 0 0 1.326.628 2 2 0 0 0 1.325-.605l8-9.163a3.047 3.047 0 0 1 4.42 0l12.255 13.954a7.535 7.535 0 0 1-7.395 7.07Z" fill="#AD7955"/><path fill-rule="evenodd" clip-rule="evenodd" d="M56.28 26.072a2.3 2.3 0 0 1 2.24 2.27v18.783a11.58 11.58 0 0 1-11.556 11.41H19.055a11.58 11.58 0 0 1-11.58-11.408.743.743 0 0 1 0-.225V19.047a11.58 11.58 0 0 1 11.58-11.58H37.66a2.277 2.277 0 1 1 0 4.555H19.056a7.048 7.048 0 0 0-7.026 7.026V40.66l4.01-4.838a6.959 6.959 0 0 1 5.34-2.502 6.952 6.952 0 0 1 5.34 2.501l.003.002 1.786 2.167 6.274-7.17a7.139 7.139 0 0 1 10.406 0l.013.014 8.786 10.048v-12.54a2.3 2.3 0 0 1 2.27-2.271h.022Zm-1.76 16.231L44.8 31.187a6.606 6.606 0 0 0-9.629 0l-6.675 7.628-2.186-2.651a6.42 6.42 0 0 0-9.86 0l-4.954 5.977V19.047a7.582 7.582 0 0 1 7.558-7.559H37.66a1.744 1.744 0 0 0 0-3.488H19.055A11.047 11.047 0 0 0 8.008 19.047v27.908a.209.209 0 0 0 0 .116A11.047 11.047 0 0 0 19.055 58h27.908a11.047 11.047 0 0 0 11.024-10.884V28.35a1.767 1.767 0 0 0-1.721-1.744 1.767 1.767 0 0 0-1.745 1.744v13.954Zm-26.163.954a1.721 1.721 0 0 1-1.326-.628l-3.512-4.233a3 3 0 0 0-4.465 0l-7.512 9.14a7.558 7.558 0 0 0 7.512 6.977h27.908a7.535 7.535 0 0 0 7.396-7.07L42.102 33.489a3.047 3.047 0 0 0-4.418 0l-8 9.163a2 2 0 0 1-1.326.605Zm9.72-9.408-8.011 9.175a2.534 2.534 0 0 1-1.68.765l-.03.002a2.254 2.254 0 0 1-1.736-.822l-3.504-4.224a2.467 2.467 0 0 0-3.658 0l-7.364 8.96a7.025 7.025 0 0 0 6.962 6.275h27.901a7.002 7.002 0 0 0 6.852-6.354l-12.1-13.776a2.513 2.513 0 0 0-3.631 0Z" fill="#AD7955"/><path d="M14.986 21.373a6.395 6.395 0 1 0 12.79 0 6.395 6.395 0 0 0-12.79 0Zm9.302 0a2.907 2.907 0 1 1-5.813 0 2.907 2.907 0 0 1 5.813 0Z" fill="#AD7955"/><path fill-rule="evenodd" clip-rule="evenodd" d="M15.62 25.222a6.929 6.929 0 1 1 11.522-7.7 6.929 6.929 0 0 1-11.522 7.7Zm7.735-2.53a2.374 2.374 0 1 0-3.948-2.639 2.374 2.374 0 0 0 3.948 2.638Zm-7.292 2.234A6.396 6.396 0 1 1 26.7 17.819a6.396 6.396 0 0 1-10.637 7.107Zm7.735-1.938a2.908 2.908 0 1 0-4.835-3.23 2.908 2.908 0 0 0 4.835 3.23Z" fill="#AD7955"/><path d="M51.334 23.333c-1.094 0-2-.907-2-2v-16c0-.8.48-1.547 1.226-1.84a2.068 2.068 0 0 1 2.187.427l5.333 5.333a2.012 2.012 0 0 1 0 2.827 2.012 2.012 0 0 1-2.826 0l-1.92-1.92v11.173c0 1.093-.907 2-2 2Z" fill="#AD7955"/><path d="M51.327 23.333c1.093 0 2-.907 2-2v-16c0-.8-.48-1.547-1.227-1.84a2.069 2.069 0 0 0-2.187.427L44.58 9.253a2.012 2.012 0 0 0 0 2.827 2.012 2.012 0 0 0 2.827 0l1.92-1.92v11.173c0 1.093.906 2 2 2Z" fill="#AD7955"/></svg>