<svg width="24" height="25" viewBox="0 0 24 25" fill="none" xmlns="http://www.w3.org/2000/svg">
<path d="M20.8008 11.3006L13.0229 11.3241V3.69921C13.0232 3.54163 12.9924 3.38554 12.9323 3.23989C12.8721 3.09425 12.7838 2.96191 12.6724 2.85049C12.5609 2.73906 12.4286 2.65074 12.283 2.5906C12.1373 2.53045 11.9812 2.49966 11.8236 2.5C11.6661 2.49966 11.51 2.53045 11.3643 2.5906C11.2187 2.65074 11.0864 2.73906 10.9749 2.85049C10.8635 2.96191 10.7752 3.09425 10.715 3.23989C10.6549 3.38554 10.6241 3.54163 10.6244 3.69921L10.648 11.3008H3.19921C3.04163 11.3005 2.88554 11.3312 2.73989 11.3914C2.59425 11.4515 2.46191 11.5399 2.35049 11.6513C2.23906 11.7627 2.15074 11.895 2.0906 12.0407C2.03045 12.1863 1.99966 12.3424 2 12.5C1.99966 12.6576 2.03045 12.8136 2.0906 12.9593C2.15075 13.1049 2.23907 13.2372 2.3505 13.3486C2.46193 13.4601 2.59426 13.5484 2.73991 13.6085C2.88555 13.6686 3.04164 13.6994 3.19921 13.699H10.6362V21.3008C10.6359 21.4584 10.6667 21.6144 10.7269 21.7601C10.787 21.9057 10.8753 22.038 10.9867 22.1495C11.0982 22.2609 11.2305 22.3492 11.3761 22.4093C11.5218 22.4695 11.6778 22.5003 11.8354 22.5C11.993 22.5003 12.1491 22.4695 12.2947 22.4093C12.4403 22.3492 12.5726 22.2609 12.6841 22.1495C12.7955 22.038 12.8838 21.9057 12.944 21.7601C13.0041 21.6144 13.0349 21.4584 13.0346 21.3008V13.6992H20.8008C20.9584 13.6995 21.1144 13.6687 21.2601 13.6086C21.4057 13.5484 21.538 13.4601 21.6495 13.3487C21.7609 13.2372 21.8492 13.1049 21.9093 12.9593C21.9695 12.8136 22.0003 12.6576 22 12.5C21.9997 12.182 21.8733 11.8771 21.6485 11.6523C21.4236 11.4274 21.1188 11.3009 20.8008 11.3006Z" fill="white"/>
</svg>
