<svg width="44" height="44" fill="none" xmlns="http://www.w3.org/2000/svg"><g clip-path="url(#a)"><path d="M42.822 11.427a2.332 2.332 0 0 0-2.356 0l-6.71 3.874v-1.496a5.889 5.889 0 0 0-5.882-5.883H5.882A5.89 5.89 0 0 0 0 13.805v16.39a5.89 5.89 0 0 0 5.882 5.883h21.991a5.89 5.89 0 0 0 5.883-5.883V28.7l6.71 3.874A2.355 2.355 0 0 0 44 30.533V13.467a2.332 2.332 0 0 0-1.178-2.04ZM31.006 30.196a3.136 3.136 0 0 1-3.133 3.132H5.883a3.136 3.136 0 0 1-3.133-3.133v-16.39a3.136 3.136 0 0 1 3.132-3.133h21.991a3.136 3.136 0 0 1 3.133 3.133v16.39Zm10.244-.345-7.494-4.328v-7.046l7.494-4.328v15.702Z" fill="#fff"/></g><defs><clipPath id="a"><path fill="#fff" d="M0 0h44v44H0z"/></clipPath></defs></svg>