<svg width="18" height="18" fill="none" xmlns="http://www.w3.org/2000/svg"><path d="m10.646 9 7.013-7.012a1.158 1.158 0 0 0 .34-.825 1.125 1.125 0 0 0-.34-.822 1.125 1.125 0 0 0-.822-.34 1.16 1.16 0 0 0-.825.34L9 7.354 1.988.34A1.159 1.159 0 0 0 1.163 0 1.125 1.125 0 0 0 .34.34a1.125 1.125 0 0 0-.34.822 1.159 1.159 0 0 0 .34.825L7.354 9 .34 16.012a1.159 1.159 0 0 0-.34.825 1.125 1.125 0 0 0 .34.822 1.125 1.125 0 0 0 .822.34 1.158 1.158 0 0 0 .825-.34L9 10.646l7.012 7.013a1.157 1.157 0 0 0 .825.34 1.166 1.166 0 0 0 .822-1.987L10.646 9Z" fill="#fff"/></svg>