<svg width="24" height="25" fill="none" xmlns="http://www.w3.org/2000/svg"><path d="M22.051 12.133C21.914 11.896 18.631 6.35 12 6.35s-9.914 5.546-10.051 5.783a.731.731 0 0 0 0 .734l.13-.076-.13.076c.138.237 3.42 5.783 10.051 5.783s9.914-5.546 10.051-5.783a.732.732 0 0 0 0-.734Zm0 0-.13.076.13-.076ZM12 17.15c-4.777 0-7.634-3.483-8.457-4.651C4.363 11.33 7.208 7.85 12 7.85c4.777 0 7.634 3.483 8.457 4.651-.82 1.169-3.665 4.649-8.457 4.649ZM8.1 12.5c0 2.074 1.755 3.75 3.9 3.75s3.9-1.676 3.9-3.75-1.755-3.75-3.9-3.75-3.9 1.676-3.9 3.75Zm1.55 0c0-1.235 1.049-2.25 2.35-2.25 1.301 0 2.35 1.015 2.35 2.25s-1.049 2.25-2.35 2.25c-1.301 0-2.35-1.015-2.35-2.25Z" fill="#EEE" stroke="#EEE" stroke-width=".3"/></svg>