<svg width="44" height="44" fill="none" xmlns="http://www.w3.org/2000/svg"><g clip-path="url(#a)"><path d="M43.061 19.625c-3.738-3.965-7.49-6.962-11.15-8.909-3.74-1.99-7.495-2.941-11.156-2.83-3.476.107-6.934 1.174-10.279 3.171-3.275 1.956-6.53 4.86-9.674 8.633a3.42 3.42 0 0 0 .062 4.477c3.47 3.933 6.998 6.932 10.489 8.914 3.556 2.018 7.172 3.041 10.75 3.041h.037c3.565-.007 7.159-1.03 10.682-3.042 3.447-1.968 6.92-4.94 10.325-8.831a3.424 3.424 0 0 0-.086-4.623Zm-1.983 2.813c-6.336 7.243-12.71 10.921-18.943 10.934h-.033c-6.272 0-12.724-3.71-19.176-11.025a.677.677 0 0 1-.012-.896C8.74 14.46 14.77 10.82 20.839 10.635c.164-.004.328-.007.493-.007 6.282 0 12.917 3.66 19.729 10.884a.686.686 0 0 1 .017.926ZM22 14.11A7.89 7.89 0 1 0 29.89 22 7.898 7.898 0 0 0 22 14.11Zm0 13.028A5.14 5.14 0 1 1 27.14 22 5.145 5.145 0 0 1 22 27.14Z" fill="#fff"/></g><defs><clipPath id="a"><path fill="#fff" d="M0 0h44v44H0z"/></clipPath></defs></svg>