<svg width="24" height="24" fill="none" xmlns="http://www.w3.org/2000/svg"><path d="M18.672 9.037h-3.22l.27-1.423a4.646 4.646 0 0 0-.098-2.146 4.462 4.462 0 0 0-1.048-1.842 2.009 2.009 0 0 0-.809-.523 1.922 1.922 0 0 0-.945-.075 1.968 1.968 0 0 0-.875.387c-.258.2-.468.463-.611.766L9.63 7.787a4.914 4.914 0 0 1-1.136 1.515.81.81 0 0 0-.267-.196.773.773 0 0 0-.319-.069H3.82a.797.797 0 0 0-.58.253.89.89 0 0 0-.239.611v11.235c0 .229.086.449.24.61a.797.797 0 0 0 .578.254H7.91a.788.788 0 0 0 .46-.152.859.859 0 0 0 .299-.398l1.437.505a.78.78 0 0 0 .259.045H16.4a3.34 3.34 0 0 0 1.552-.39 3.542 3.542 0 0 0 1.226-1.08A10.043 10.043 0 0 0 21 14.76v-3.263c0-.653-.246-1.278-.683-1.739a2.269 2.269 0 0 0-1.645-.72ZM7.09 20.272H4.636v-9.506h2.455v9.506Zm12.273-5.512a8.237 8.237 0 0 1-1.494 4.736 1.874 1.874 0 0 1-.65.571 1.766 1.766 0 0 1-.823.206h-5.9l-1.77-.624v-8.4a6.57 6.57 0 0 0 2.373-2.69l1.702-3.605a.406.406 0 0 1 .117-.147.378.378 0 0 1 .348-.06c.059.02.112.055.155.1.297.313.515.698.637 1.121.121.424.141.872.059 1.306l-.465 2.454a.912.912 0 0 0 .168.72.798.798 0 0 0 .633.317h4.218a.67.67 0 0 1 .489.215c.13.137.203.323.203.517v3.263Z" fill="#fff"/></svg>