<svg width="44" height="44" fill="none" xmlns="http://www.w3.org/2000/svg"><g clip-path="url(#a)"><path d="M22 24.846a7.329 7.329 0 1 1 7.329-7.329 7.342 7.342 0 0 1-7.33 7.33Zm0-11.729a4.4 4.4 0 1 0 0 8.801 4.4 4.4 0 0 0 0-8.8Zm14.671 13.2a5.87 5.87 0 1 1 0-11.741 5.87 5.87 0 0 1 0 11.741Zm0-8.8a2.929 2.929 0 1 0 2.929 2.93 2.943 2.943 0 0 0-2.929-2.93Zm-29.342 8.8a5.87 5.87 0 1 1 0-11.741 5.87 5.87 0 0 1 0 11.741Zm0-8.8a2.929 2.929 0 1 0 2.928 2.93 2.943 2.943 0 0 0-2.928-2.93Zm23.47 18.797a1.47 1.47 0 0 1-1.457-1.375 5.088 5.088 0 0 0-5.073-4.593H19.73a5.087 5.087 0 0 0-5.074 4.593 1.471 1.471 0 0 1-2.915-.289 8.002 8.002 0 0 1 7.99-7.15h4.537a8.002 8.002 0 0 1 7.988 7.233 1.473 1.473 0 0 1-1.375 1.608l-.082-.027Zm11.73-.99a1.47 1.47 0 0 1-1.458-1.375 2.887 2.887 0 0 0-2.901-2.613h-3.025a3.094 3.094 0 0 0-.853.124 1.472 1.472 0 1 1-.838-2.75 6.023 6.023 0 0 1 1.69-.248h3.026A5.816 5.816 0 0 1 44 33.715a1.473 1.473 0 0 1-1.375 1.609h-.096Zm-41.058 0h-.096A1.472 1.472 0 0 1 0 33.715a5.816 5.816 0 0 1 5.816-5.253h3.025a6.023 6.023 0 0 1 1.691.248 1.472 1.472 0 1 1-.838 2.75 3.094 3.094 0 0 0-.853-.124H5.816a2.888 2.888 0 0 0-2.901 2.613 1.471 1.471 0 0 1-1.444 1.375Z" fill="#fff"/></g><defs><clipPath id="a"><path fill="#fff" d="M0 0h44v44H0z"/></clipPath></defs></svg>