<svg width="24" height="24" fill="none" xmlns="http://www.w3.org/2000/svg"><path d="M20.142 18.73 16.9 15.487a7.369 7.369 0 0 0 1.522-4.494c0-1.985-.773-3.85-2.176-5.254a7.38 7.38 0 0 0-5.254-2.176c-1.985 0-3.85.773-5.254 2.176-2.897 2.897-2.897 7.611 0 10.508a7.381 7.381 0 0 0 5.254 2.177c1.647 0 3.207-.54 4.494-1.523l3.243 3.244a.997.997 0 0 0 1.414 0 1 1 0 0 0 0-1.415Zm-12.99-3.897a5.437 5.437 0 0 1 1.76-8.86 5.396 5.396 0 0 1 2.08-.41 5.395 5.395 0 0 1 3.839 1.59 5.394 5.394 0 0 1 1.59 3.84c0 1.45-.565 2.814-1.59 3.84a5.392 5.392 0 0 1-3.84 1.59 5.399 5.399 0 0 1-3.84-1.59Z" fill="#fff"/></svg>