<svg width="32" height="32" fill="none" xmlns="http://www.w3.org/2000/svg"><path d="M28.133 13.303a.884.884 0 0 0-.872.872v6.977L22.4 15.593a3.301 3.301 0 0 0-4.814 0l-3.337 3.814-1.093-1.325a3.21 3.21 0 0 0-4.93 0L5.747 21.07V9.523a3.79 3.79 0 0 1 3.78-3.779h9.302a.872.872 0 1 0 0-1.744H9.528a5.523 5.523 0 0 0-5.524 5.523v13.954a.105.105 0 0 0 0 .058 5.523 5.523 0 0 0 5.524 5.466h13.954a5.523 5.523 0 0 0 5.511-5.442v-9.384a.884.884 0 0 0-.86-.872Zm-4.651 13.953H9.527a3.779 3.779 0 0 1-3.756-3.488l3.756-4.57a1.501 1.501 0 0 1 2.232 0l1.756 2.116a.862.862 0 0 0 .663.314 1 1 0 0 0 .663-.302l4-4.581a1.522 1.522 0 0 1 2.21 0l6.127 6.976a3.767 3.767 0 0 1-3.697 3.535Z" fill="#653012"/><path fill-rule="evenodd" clip-rule="evenodd" d="M28.14 13.036a1.15 1.15 0 0 1 1.12 1.135v9.392a5.79 5.79 0 0 1-5.778 5.704H9.528a5.79 5.79 0 0 1-5.79-5.703.37.37 0 0 1 0-.113V9.523a5.79 5.79 0 0 1 5.79-5.79h9.302a1.139 1.139 0 0 1 0 2.278H9.528a3.524 3.524 0 0 0-3.513 3.513V20.33l2.005-2.42a3.48 3.48 0 0 1 4.145-.922c.461.216.87.53 1.196.922v.001l.894 1.084 3.136-3.585a3.57 3.57 0 0 1 5.204 0l.006.007 4.393 5.024v-6.27a1.15 1.15 0 0 1 1.135-1.136h.01Zm-.88 8.116-4.86-5.559a3.303 3.303 0 0 0-4.814 0l-3.337 3.814-1.093-1.325a3.21 3.21 0 0 0-4.93 0L5.747 21.07V9.523a3.79 3.79 0 0 1 3.78-3.779h9.302a.872.872 0 0 0 0-1.744H9.528a5.523 5.523 0 0 0-5.524 5.523v13.954a.105.105 0 0 0 0 .058 5.524 5.524 0 0 0 5.524 5.466h13.954a5.524 5.524 0 0 0 5.511-5.442v-9.384a.883.883 0 0 0-.86-.872.884.884 0 0 0-.872.872v6.977Zm-13.081.476a.86.86 0 0 1-.663-.314l-1.756-2.116a1.5 1.5 0 0 0-2.232 0l-3.756 4.57a3.78 3.78 0 0 0 3.756 3.489h13.954a3.768 3.768 0 0 0 3.697-3.535l-6.128-6.977a1.525 1.525 0 0 0-2.21 0l-4 4.581a1 1 0 0 1-.662.302Zm4.86-4.704-4.006 4.588a1.267 1.267 0 0 1-.84.383h-.015a1.127 1.127 0 0 1-.867-.41l-1.752-2.112a1.234 1.234 0 0 0-1.83 0l-3.682 4.48a3.512 3.512 0 0 0 3.481 3.137H23.48a3.5 3.5 0 0 0 3.426-3.177l-6.05-6.888a1.255 1.255 0 0 0-1.816 0Z" fill="#653012"/><path d="M7.493 10.686a3.197 3.197 0 1 0 6.395 0 3.197 3.197 0 0 0-6.395 0Zm4.651 0a1.454 1.454 0 1 1-2.907 0 1.454 1.454 0 0 1 2.907 0Zm9.012-1.453h2.616v2.616a.872.872 0 0 0 1.745 0V9.233h2.616a.872.872 0 1 0 0-1.745h-2.616V4.872a.872.872 0 0 0-1.745 0v2.616h-2.616a.872.872 0 0 0 0 1.745Z" fill="#653012"/><path fill-rule="evenodd" clip-rule="evenodd" d="M7.81 12.611a3.465 3.465 0 1 1 5.762-3.85 3.465 3.465 0 0 1-5.762 3.85Zm3.867-1.265a1.187 1.187 0 1 0-1.973-1.319 1.187 1.187 0 0 0 1.973 1.319Zm11.829-1.847h-2.35a1.139 1.139 0 1 1 0-2.277h2.35v-2.35a1.139 1.139 0 0 1 2.277 0v2.35h2.35a1.139 1.139 0 0 1 0 2.277h-2.35v2.35a1.14 1.14 0 0 1-2.277 0V9.5ZM8.032 12.463a3.198 3.198 0 1 1 5.317-3.553 3.198 3.198 0 0 1-5.317 3.553Zm3.867-.97A1.454 1.454 0 1 0 9.481 9.88a1.454 1.454 0 0 0 2.418 1.615Zm9.257-2.26a.872.872 0 1 1 0-1.744h2.616V4.872a.872.872 0 0 1 1.745 0V7.49h2.616a.872.872 0 0 1 0 1.744h-2.616v2.616a.872.872 0 1 1-1.745 0V9.233h-2.616Z" fill="#653012"/></svg>